<svg xmlns="http://www.w3.org/2000/svg" viewBox="0 0 800 500" width="800" height="500" role="img" aria-label="Monthly visitors to a coastal town (thousands)">
<rect width="800" height="500" fill="#ffffff"/>
<text x="400" y="38" font-family="'Segoe UI', Arial, Helvetica, sans-serif" font-size="21" font-weight="600" fill="#0f172a" text-anchor="middle">Monthly visitors to a coastal town (thousands)</text>
<line x1="90" x2="750" y1="405" y2="405" stroke="#e2e8f0"/>
<text x="80" y="410" font-family="'Segoe UI', Arial, Helvetica, sans-serif" font-size="13" fill="#475569" text-anchor="end">0</text>
<line x1="90" x2="750" y1="338" y2="338" stroke="#e2e8f0"/>
<text x="80" y="343" font-family="'Segoe UI', Arial, Helvetica, sans-serif" font-size="13" fill="#475569" text-anchor="end">20</text>
<line x1="90" x2="750" y1="271" y2="271" stroke="#e2e8f0"/>
<text x="80" y="276" font-family="'Segoe UI', Arial, Helvetica, sans-serif" font-size="13" fill="#475569" text-anchor="end">40</text>
<line x1="90" x2="750" y1="204" y2="204" stroke="#e2e8f0"/>
<text x="80" y="209" font-family="'Segoe UI', Arial, Helvetica, sans-serif" font-size="13" fill="#475569" text-anchor="end">60</text>
<line x1="90" x2="750" y1="137" y2="137" stroke="#e2e8f0"/>
<text x="80" y="142" font-family="'Segoe UI', Arial, Helvetica, sans-serif" font-size="13" fill="#475569" text-anchor="end">80</text>
<line x1="90" x2="750" y1="70" y2="70" stroke="#e2e8f0"/>
<text x="80" y="75" font-family="'Segoe UI', Arial, Helvetica, sans-serif" font-size="13" fill="#475569" text-anchor="end">100</text>
<line x1="90" x2="750" y1="405" y2="405" stroke="#475569"/>
<text x="22" y="237.5" transform="rotate(-90 22 237.5)" font-family="'Segoe UI', Arial, Helvetica, sans-serif" font-size="14" fill="#475569" text-anchor="middle">Visitors (thousands)</text>
<polyline points="90,364.8 150,368.2 210,354.8 270,331.3 330,291.1 390,230.8 450,167.2 510,157.1 570,244.2 630,314.6 690,358.1 750,351.4" fill="none" stroke="#2e5bff" stroke-width="3" stroke-linejoin="round"/><circle cx="90" cy="364.8" r="4" fill="#2e5bff"/><circle cx="150" cy="368.2" r="4" fill="#2e5bff"/><circle cx="210" cy="354.8" r="4" fill="#2e5bff"/><circle cx="270" cy="331.3" r="4" fill="#2e5bff"/><circle cx="330" cy="291.1" r="4" fill="#2e5bff"/><circle cx="390" cy="230.8" r="4" fill="#2e5bff"/><circle cx="450" cy="167.2" r="4" fill="#2e5bff"/><circle cx="510" cy="157.1" r="4" fill="#2e5bff"/><circle cx="570" cy="244.2" r="4" fill="#2e5bff"/><circle cx="630" cy="314.6" r="4" fill="#2e5bff"/><circle cx="690" cy="358.1" r="4" fill="#2e5bff"/><circle cx="750" cy="351.4" r="4" fill="#2e5bff"/>
<polyline points="90,361.5 150,361.5 210,344.7 270,317.9 330,274.4 390,210.7 450,137 510,127 570,220.7 630,304.5 690,354.8 750,344.7" fill="none" stroke="#e8590c" stroke-width="3" stroke-linejoin="round"/><circle cx="90" cy="361.5" r="4" fill="#e8590c"/><circle cx="150" cy="361.5" r="4" fill="#e8590c"/><circle cx="210" cy="344.7" r="4" fill="#e8590c"/><circle cx="270" cy="317.9" r="4" fill="#e8590c"/><circle cx="330" cy="274.4" r="4" fill="#e8590c"/><circle cx="390" cy="210.7" r="4" fill="#e8590c"/><circle cx="450" cy="137" r="4" fill="#e8590c"/><circle cx="510" cy="127" r="4" fill="#e8590c"/><circle cx="570" cy="220.7" r="4" fill="#e8590c"/><circle cx="630" cy="304.5" r="4" fill="#e8590c"/><circle cx="690" cy="354.8" r="4" fill="#e8590c"/><circle cx="750" cy="344.7" r="4" fill="#e8590c"/>
<text x="90" y="427" font-family="'Segoe UI', Arial, Helvetica, sans-serif" font-size="13" fill="#475569" text-anchor="middle">Jan</text>
<text x="150" y="427" font-family="'Segoe UI', Arial, Helvetica, sans-serif" font-size="13" fill="#475569" text-anchor="middle">Feb</text>
<text x="210" y="427" font-family="'Segoe UI', Arial, Helvetica, sans-serif" font-size="13" fill="#475569" text-anchor="middle">Mar</text>
<text x="270" y="427" font-family="'Segoe UI', Arial, Helvetica, sans-serif" font-size="13" fill="#475569" text-anchor="middle">Apr</text>
<text x="330" y="427" font-family="'Segoe UI', Arial, Helvetica, sans-serif" font-size="13" fill="#475569" text-anchor="middle">May</text>
<text x="390" y="427" font-family="'Segoe UI', Arial, Helvetica, sans-serif" font-size="13" fill="#475569" text-anchor="middle">Jun</text>
<text x="450" y="427" font-family="'Segoe UI', Arial, Helvetica, sans-serif" font-size="13" fill="#475569" text-anchor="middle">Jul</text>
<text x="510" y="427" font-family="'Segoe UI', Arial, Helvetica, sans-serif" font-size="13" fill="#475569" text-anchor="middle">Aug</text>
<text x="570" y="427" font-family="'Segoe UI', Arial, Helvetica, sans-serif" font-size="13" fill="#475569" text-anchor="middle">Sep</text>
<text x="630" y="427" font-family="'Segoe UI', Arial, Helvetica, sans-serif" font-size="13" fill="#475569" text-anchor="middle">Oct</text>
<text x="690" y="427" font-family="'Segoe UI', Arial, Helvetica, sans-serif" font-size="13" fill="#475569" text-anchor="middle">Nov</text>
<text x="750" y="427" font-family="'Segoe UI', Arial, Helvetica, sans-serif" font-size="13" fill="#475569" text-anchor="middle">Dec</text>
<rect x="230" y="467" width="14" height="14" rx="3" fill="#2e5bff"/><text x="252" y="478" font-family="'Segoe UI', Arial, Helvetica, sans-serif" font-size="14" fill="#475569">2024</text>
<rect x="400" y="467" width="14" height="14" rx="3" fill="#e8590c"/><text x="422" y="478" font-family="'Segoe UI', Arial, Helvetica, sans-serif" font-size="14" fill="#475569">2025</text>
</svg>