<svg xmlns="http://www.w3.org/2000/svg" viewBox="0 0 800 500" width="800" height="500" role="img" aria-label="Average weekly study hours by year of study">
<rect width="800" height="500" fill="#ffffff"/>
<text x="400" y="38" font-family="'Segoe UI', Arial, Helvetica, sans-serif" font-size="21" font-weight="600" fill="#0f172a" text-anchor="middle">Average weekly study hours by year of study</text>
<line x1="90" x2="760" y1="405" y2="405" stroke="#e2e8f0"/>
<text x="80" y="410" font-family="'Segoe UI', Arial, Helvetica, sans-serif" font-size="13" fill="#475569" text-anchor="end">0</text>
<line x1="90" x2="760" y1="293.3" y2="293.3" stroke="#e2e8f0"/>
<text x="80" y="298.3" font-family="'Segoe UI', Arial, Helvetica, sans-serif" font-size="13" fill="#475569" text-anchor="end">10</text>
<line x1="90" x2="760" y1="181.7" y2="181.7" stroke="#e2e8f0"/>
<text x="80" y="186.7" font-family="'Segoe UI', Arial, Helvetica, sans-serif" font-size="13" fill="#475569" text-anchor="end">20</text>
<line x1="90" x2="760" y1="70" y2="70" stroke="#e2e8f0"/>
<text x="80" y="75" font-family="'Segoe UI', Arial, Helvetica, sans-serif" font-size="13" fill="#475569" text-anchor="end">30</text>
<line x1="90" x2="760" y1="405" y2="405" stroke="#475569"/>
<text x="22" y="237.5" transform="rotate(-90 22 237.5)" font-family="'Segoe UI', Arial, Helvetica, sans-serif" font-size="14" fill="#475569" text-anchor="middle">Hours per week</text>
<rect x="114.5" y="248.7" width="58.3" height="156.3" rx="2" fill="#2e5bff"/>
<text x="143.6" y="242.7" font-family="'Segoe UI', Arial, Helvetica, sans-serif" font-size="12" fill="#0f172a" text-anchor="middle">14</text>
<rect x="174.8" y="282.2" width="58.3" height="122.8" rx="2" fill="#e8590c"/>
<text x="203.9" y="276.2" font-family="'Segoe UI', Arial, Helvetica, sans-serif" font-size="12" fill="#0f172a" text-anchor="middle">11</text>
<rect x="282" y="215.2" width="58.3" height="189.8" rx="2" fill="#2e5bff"/>
<text x="311.1" y="209.2" font-family="'Segoe UI', Arial, Helvetica, sans-serif" font-size="12" fill="#0f172a" text-anchor="middle">17</text>
<rect x="342.3" y="259.8" width="58.3" height="145.2" rx="2" fill="#e8590c"/>
<text x="371.4" y="253.8" font-family="'Segoe UI', Arial, Helvetica, sans-serif" font-size="12" fill="#0f172a" text-anchor="middle">13</text>
<rect x="449.5" y="170.5" width="58.3" height="234.5" rx="2" fill="#2e5bff"/>
<text x="478.6" y="164.5" font-family="'Segoe UI', Arial, Helvetica, sans-serif" font-size="12" fill="#0f172a" text-anchor="middle">21</text>
<rect x="509.8" y="226.3" width="58.3" height="178.7" rx="2" fill="#e8590c"/>
<text x="538.9" y="220.3" font-family="'Segoe UI', Arial, Helvetica, sans-serif" font-size="12" fill="#0f172a" text-anchor="middle">16</text>
<rect x="617" y="114.7" width="58.3" height="290.3" rx="2" fill="#2e5bff"/>
<text x="646.1" y="108.7" font-family="'Segoe UI', Arial, Helvetica, sans-serif" font-size="12" fill="#0f172a" text-anchor="middle">26</text>
<rect x="677.3" y="192.8" width="58.3" height="212.2" rx="2" fill="#e8590c"/>
<text x="706.4" y="186.8" font-family="'Segoe UI', Arial, Helvetica, sans-serif" font-size="12" fill="#0f172a" text-anchor="middle">19</text>
<text x="173.8" y="427" font-family="'Segoe UI', Arial, Helvetica, sans-serif" font-size="13" fill="#475569" text-anchor="middle">Year 1</text>
<text x="341.3" y="427" font-family="'Segoe UI', Arial, Helvetica, sans-serif" font-size="13" fill="#475569" text-anchor="middle">Year 2</text>
<text x="508.8" y="427" font-family="'Segoe UI', Arial, Helvetica, sans-serif" font-size="13" fill="#475569" text-anchor="middle">Year 3</text>
<text x="676.3" y="427" font-family="'Segoe UI', Arial, Helvetica, sans-serif" font-size="13" fill="#475569" text-anchor="middle">Year 4</text>
<rect x="230" y="467" width="14" height="14" rx="3" fill="#2e5bff"/><text x="252" y="478" font-family="'Segoe UI', Arial, Helvetica, sans-serif" font-size="14" fill="#475569">Science students</text>
<rect x="400" y="467" width="14" height="14" rx="3" fill="#e8590c"/><text x="422" y="478" font-family="'Segoe UI', Arial, Helvetica, sans-serif" font-size="14" fill="#475569">Humanities students</text>
</svg>